<svg xmlns="http://www.w3.org/2000/svg" xmlns:xlink="http://www.w3.org/1999/xlink" width="460" height="535" viewBox="0 0 460 535">
  <defs>
    <clipPath id="clip-path">
      <rect id="Rechteck_2452" data-name="Rechteck 2452" width="460" height="535" transform="translate(1057 4993)" fill="#fff"/>
    </clipPath>
    <linearGradient id="linear-gradient" x1="0.282" y1="1.026" x2="0.742" y2="0.087" gradientUnits="objectBoundingBox">
      <stop offset="0" stop-color="#ea7600"/>
      <stop offset="0.03" stop-color="#e67400"/>
      <stop offset="1" stop-color="#fcee21"/>
    </linearGradient>
    <linearGradient id="linear-gradient-2" x1="-0.001" y1="0.499" x2="0.999" y2="0.499" gradientUnits="objectBoundingBox">
      <stop offset="0" stop-color="#0071bc"/>
      <stop offset="1" stop-color="#29abe2"/>
    </linearGradient>
    <linearGradient id="linear-gradient-3" x1="0" y1="0.498" x2="1" y2="0.498" xlink:href="#linear-gradient-2"/>
    <linearGradient id="linear-gradient-4" y1="0.5" x2="1" y2="0.5" gradientUnits="objectBoundingBox">
      <stop offset="0" stop-color="#e67701"/>
      <stop offset="1" stop-color="#fbe81f"/>
    </linearGradient>
  </defs>
  <g id="Gruppe_maskieren_110" data-name="Gruppe maskieren 110" transform="translate(-1057 -4993)" clip-path="url(#clip-path)">
    <g id="Gruppe_3483" data-name="Gruppe 3483" transform="translate(851.382 -350.901)">
      <circle id="Ellipse_1676" data-name="Ellipse 1676" cx="229.859" cy="229.859" r="229.859" transform="translate(205.95 5410.179)" fill="#343333"/>
      <g id="Gruppe_3484" data-name="Gruppe 3484" transform="translate(135.086 5279.351)">
        <path id="Pfad_10913" data-name="Pfad 10913" d="M348.538,333.524l-7.176-.9s-17.934-8.067-18.831-8.964S302.808,312.9,302.808,312.9s-17.934-5.382-18.831-5.382-12.552-1.77-12.552-1.77l-8.97-1.77.9-.9,10.758-2.691s26.007,0,26.9-.9,14.346-.9,14.346-.9l-9.867-5.376-27.8-17.934-16.117-13.5-23.31-31.384L229.3,215.16l6.279,2.691,27.8,13.455,15.243,4.479,23.316,2.691H310.9l-1.77-2.691-23.352-15.231-12.558-16.14-7.17-9.861L251.7,164.066l-9.867-23.316,1.77,1.77,18.831,12.552,24.2,13.449,23.34,11.673h7.176l-5.382-9.867L295.626,147.9,276.8,130.853l-13.449-8.05-12.552-7.17,9.861-.9,26.007-3.588,20.619-.9s10.764,1.77,11.661,1.77,28.693,7.17,28.693,7.17l16.14,5.382,5.382-23.316,8.964-16.14,13.449-14.346L404.129,62.7,414,54.63l24.2-16.14-.9,3.588-4.467,17.958-4.485,23.31-2.7,27.8,1.77,23.31L431,150.6l.9-37.657.9-15.243,2.691-9.867V99.487l1.77,50.215,2.691,19.728,2.691.9,10.758-40.348,5.382-20.655L469.54,90.493,480.3,77.941l11.655-10.764-2.691,8.073L485.68,91.39l-1.77,54.7.9,17.934,20.649-10.746L523.39,147l31.384-7.176,21.522-3.588-4.485,4.485-21.516,22.425-17.037,19.722-22.425,29.6-3.588,3.582,9.867-1.77,21.517-12.558,19.657-15.674,9.938-7.636-.9,8.067-13.449,34.96-13.449,30.487L528.772,262.69l-14.346,9.861-18.831,10.758,19.746-3.582,22.425-1.77,17.037-.9,15.243.9-9.861,2.691S530.6,293.2,529.7,293.2s-29.389,13.479-29.389,13.479l13.249.867,8.964,1.77,14.346,3.588-4.479,1.77-20.655,3.588-34.972,12.552-6.273.915-11.213-12.983v-7.188l6.279-9.867.9-12.552-2.691,12.552-26.91,14.346L415.335,330.39l-14.346-.9s-8.97-4.485-9.867-5.382-16.14-11.655-16.14-11.655l-1.77,1.77-.9,6.279-5.376-6.279-9.885-11.643L345.38,315.141Z" transform="translate(-110.446 26.266)" fill="url(#linear-gradient)"/>
        <path id="Pfad_10914" data-name="Pfad 10914" d="M345.071,115.218c2.467-15.19,8.646-28.362,20.124-39a230.3,230.3,0,0,1,38.153-28.746c3.871-2.325,11.885-7.672,15.792-9.956.106.195-.366.8-.26.991-5.063,3.269-13.615,9.283-18.678,12.552a6.272,6.272,0,0,0-1.629.679c-4.52,3.612-8.687,7.9-13.65,10.764-8.71,5.069-15.462,12.222-22.219,19.351-6.043,6.374-10.723,13.744-12.505,22.6-2.284,11.354-4.6,22.7-6.846,33.791l6.338,4.131c1.428-8.551,2.638-16.9,4.249-25.158,2.361-12.11,5.028-24.16,12.511-34.417,1.93-2.656,3.883-5.311,5.966-7.831s4.338-4.934,6.492-7.394l.75.59C370.016,78.4,361.63,89.47,358.414,103.4c-3.122,13.437-6.338,26.928-6.657,40.79l1.351.2q2.284-14.63,4.574-29.253a9.631,9.631,0,0,1,.177,4.42c-1.074,8.049-2.189,16.093-3.216,24.154a3.472,3.472,0,0,0,.443,2.591c2.715,2.52,5.606,4.845,8.734,7.495.378-12.251.649-23.948,1.127-35.639.431-10.622,1.529-21.062,8.032-30.1,5.565-7.749,10.965-15.621,16.435-23.44a13.121,13.121,0,0,1-.962,2.284c-4.656,6.928-9.478,13.756-14,20.773-4.609,7.135-7.943,14.753-7.377,23.558.4,6.1.655,12.216.962,18.324q.407,8.215.8,16.429h.289q.667-21.8,1.334-43.605l.637.041v45.647c.85-8.923,1.818-18.666,2.7-28.409,1.015-11.213,3.063-22.053,9.637-31.537,1.652-2.361,3.358-4.721,4.939-7.158q9.147-14.039,18.224-28.12l.72.407q-2.886,6.338-5.766,12.676l.519.254,2.862-4.644a35.918,35.918,0,0,1-3.541,8.522c-6.1,10.823-9.253,22.36-8.51,34.865.525,9.035.8,18.088,1.5,27.111,1.009,12.782,2.408,25.529,3.429,38.312.212,2.6,1.328,3.458,3.612,4.131,15.291,4.556,30.056,10.268,42.8,20.3.59.454,2.479-.035,3.269-.685,9.094-7.448,18.058-15.054,27.146-22.514,3.081-2.526,6.421-4.721,9.637-7.082l.118.254-31.466,30.687.826.85c4.674-4.3,9.277-8.657,14.057-12.836,1.3-1.133,3.736-1.281,4.562-2.573,3.983-6.244,9.785-10.563,15.934-13.933,13.514-7.406,27.447-14.057,41.31-20.867,5.477-2.691,11.165-4.975,16.754-7.448a6.47,6.47,0,0,1-2.473,3.919c-2.856,1.824-5.9,3.393-8.852,5-23.31,12.605-45.936,26.137-63.363,46.727q-5.24,6.179-10.463,12.393a105.379,105.379,0,0,0,11.148-8.545c3.588-3.317,6.58-7.271,10.156-10.623s7.636-6.492,11.632-9.548,8.4-5.854,12.493-8.917c3.919-2.951,7.672-6.067,11.514-9.112l.59.7c-23.44,19.044-41.51,42.49-56.594,68.379,15.8-21.682,31.006-43.865,51.85-61.268-20.124,18.914-35.922,41.268-50.823,64.325l31.537-39.333.478.378c-9.9,14.464-19.787,28.917-29.507,43.145,1.587,1.806,2.827,3.216,4.1,4.65,18.046-32.351,76.435-101.958,87.742-105.1-24.32,23.163-47.388,51.141-67.158,78.034a60.354,60.354,0,0,0,12.446-4.1c12.824-6.208,23.606-15.468,34.818-24.048,3.228-2.467,8.038-6.409,11.319-8.817-.077-.03.319-.307-.5,1.446-1.074.513-10.032,8.262-10.918,8.982-6.651,5.311-13.013,11.036-19.905,16.016-8.262,5.972-16.966,11.4-27.318,13.255-1.139.2-2.726.218-3.293.95-3.346,4.32-6.456,8.852-10.251,14.116l17.7-6.037c.443.761,19.138-12.251,19.569-11.514,1.115-.271-5.164,9.041-4.131,8.787-1.475,1.1-13.9,6.326-15.721,7.672,6.61-1.369-3.269,2.691-1.741-.531-2.78,1.18,7.43-3.193,5.075-2.172,1.806-1.222,4.963-3.145,6.722-4.438a20.9,20.9,0,0,0,3.263-2.85c1.464-1.646,2.52-3.712,4.131-5.146,4.939-4.343,10.251-8.262,15.078-12.741,4.178-3.86,7.884-8.232,11.8-12.393a29.367,29.367,0,0,1-.779,3.765c-.921,2.756-1.983,5.471-2.986,8.2l.454.148q3.323-5.347,6.645-10.7a6.622,6.622,0,0,1-.413,1.77c-7.784,14.134-15.4,28.368-23.493,42.325a58.745,58.745,0,0,1-15.521,18.076c-1.623.531-13.473,12.759-13.674,11.366-6.379,2.254,4.721-11.213,4.042-5.246-.177,1.576-2.095,2.951-3.21,4.426l.389.5,21.516-14.854a2.844,2.844,0,0,1-1.3,1.918c-9.537,6.521-18.932,13.266-28.716,19.4-3.736,2.361-5.624,5.052-5.866,9.531,1.18-.561,2.219-1.015,3.228-1.57,6.073-3.328,12.517-6.143,18.094-10.168,7.359-5.311,15.043-10.735,20.708-17.651,5.536-6.769,9.383-15.2,12.776-23.387,5.7-13.792,10.451-27.978,15.6-41.994.938-2.3,1.971-6.958,2.909-9.259-.437,2.018-.75,6.492-1.434,8.4-5.9,16.7-11.691,33.443-17.928,50.02-4.6,12.21-11.8,22.65-22.945,29.967-3.665,2.408-7.3,4.863-10.953,7.3a69.455,69.455,0,0,0,9.767-2.809c3.193-1.039,6.456-2.042,9.731-2.9,3.393-.885,6.828-1.617,10.263-2.319,3.169-.643,6.362-1.151,9.543-1.717l.177.921c-17.114,3.765-33.856,8.693-49.849,16.016,21.08-4.131,44.555-4.485,65.871-2.856-1.044.519-4.391.207-5.459.177a249.759,249.759,0,0,0-59.6,5.264c-6.279,1.363-13.98.82-16.134,9.194,22.349-6.61,45.252-11.8,68.881-13.343-9.956,2.6-20.23,4.214-29.112,9.95l3.24-.59a62.358,62.358,0,0,1-7.194,3.588c-12.393,5.9-24.733,11.8-37.043,17.816-1.121.549-1.859,1.888-2.78,2.862,27.146-13.249,55.5-27.447,84.732-34.777-22.154,6.787-44.343,17.982-65.765,28.362,4.184.443,7.572.531,10.835,1.18,5.441,1.115,10.805,2.579,16.182,3.978.555.142,5.311,1.334,5.777,1.77-.419.148-4.4-.508-4.81-.36-11.006-3.246-22.927-4.81-34.376-2.951l33.307,3.594c.661.142.755.248,1.1.065,3.027-1.611,5.122-.283,7.985,1.239-5.016.543-9.212.891-13.378,1.475-12.393,1.729-24.2,5.689-35.757,10.457-9.6,3.96-19.185,7.949-28.533,11.8,1.77,9.79,3.541,19.805,5.488,29.784a4.6,4.6,0,0,0,2.361,2.951c7.152,2.921,14.4,5.63,21.617,8.4.714.271,1.446.5,2.184.749,1.074-5.417,2.077-10.5,3.086-15.586l.649.071c.69,2.951,1.381,5.943,2.136,9.171,3.263-2.4,4.479-4.792,4.343-8.852-.242-7.194.785-14.423,1.281-21.634h1.3a15.89,15.89,0,0,1,.744,2.266c.921,5.205,3.075,8.061,6.586,8.64,5.636.915,7.731-.23,10.4-6.025,2.319-5.028,4.491-10.121,7.17-16.187a30.391,30.391,0,0,0,.938,4.951c.885,2.166,2.036,4.225,3.075,6.326,1.906-1.133,4.19-1.912,5.648-3.47,4.479-4.786,8.64-9.873,12.812-14.706-1.906,7.436-3.883,14.984-5.766,22.555-1.18,4.656.513,6.25,5.146,5a22.269,22.269,0,0,0,2.555-1.056c-.248,3.476-.7,6.728-.667,9.979.041,3.57,1.334,6.285,5.536,6.846,3.387.454,6.7,1.446,10.622,2.361-9.295,7.312-15.019,16-15.656,27.489,12.983.761,25.453,3.913,36.736,11.118,9.737,6.214,17.02,14.665,23.015,24.355V616.423c-2.65.378-5.9-.065-7.784,1.34-2.148,1.593-4.084,1.582-6.261,1.587q-20.785.047-41.558,0h-4.692c3.789-6.043-.242-9.076-3.34-12.694a16.967,16.967,0,0,1-3.606-7.04c-1.18-5.311-1.824-10.758-2.6-16.164-.62-4.308-1.121-8.622-1.711-13.343a58.371,58.371,0,0,1-18.7,15.426c-4.06,2.189-4.579,5.553-5.388,9.554l16.772-5.217-11.573,12.582c7.389,6.126,14.441,1.629,21.7-.348a32.086,32.086,0,0,1-3.765,3.11c-5.311,3.989-10.622,8.02-16.028,11.95-1.233.9-2.721,2.06-4.09,2.066q-75.945.165-151.89.118-38.424,0-76.866-.071c-1.139,0-2.951-.094-3.311-.767-3.216-5.783-9.307-6.1-14.571-7.949-2.833-.991-5.766-1.688-8.651-2.52l.118-.868,18.967-4.674c-2.85-3.576-5.772-7.241-9.159-11.478L276.278,597c-1.54-3.8-1.906-7.825-4.06-9.442-6.981-5.152-14.7-9.312-20.2-16.7-.909,7.483-1.528,14.5-2.685,21.428-.862,5.175-.773,10.918-5.181,14.753-3.883,3.4-6.4,6.875-2.679,11.962-8.156.856-8.669.679-15.633-3.281a3.351,3.351,0,0,0-3.057.649c-2.6,2.479-5.565,3.057-9.053,2.992-9.684-.183-19.368-.059-29.053-.059h-3.452c-.112-.909-.189-1.269-.189-1.629v-182.9a6.4,6.4,0,0,1,.838-3.452,129.551,129.551,0,0,1,8.374-11.443c5.955-6.911,13.319-12.045,22.467-16.176l-8.905-24.343c12.983.773,15.072,11.455,17.74,20.944l18.731-3.134c-5.353-11.065-10.623-21.912-16.252-33.573,1.77,1.18,2.626,1.865,3.588,2.361,5.252,2.774,10.357,5.9,15.833,8.12,4.5,1.824,6.315.389,5.86-4.461-.755-8.1-1.971-16.164-3.293-24.2-1.086-6.633-2.608-13.19-3.942-19.781,2.726,4.91,4.928,9.991,7.383,14.948,3.411,6.9,7.241,13.573,13.337,18.5a12.731,12.731,0,0,0,6.916,2.361c.974.065,2.113-2.29,3.2-3.576a4.907,4.907,0,0,1,.59.667c5.659,8.339,10.428,17.385,19.475,22.921,1.983,1.216,3.263,1.646,5.524.555,7.613-3.682,15.285-7.3,23.163-10.357,3.47-1.346,5.606-2.113,6.1-6.686,1.021-9.4,3.334-18.666,5.028-27.524-5.081-1.936-10.28-3.541-15.137-5.854-8.64-4.131-17.114-8.663-25.588-13.1-11.018-5.76-22.425-10.263-34.818-12.1-5.9-.873-11.708-1.995-17.563-3,17.114-5.636,34.818-5.488,53.313-5.9-7.566-4.467-14.417-8.191-20.932-12.434-8.315-5.412-16.925-10.593-24.4-17.049-10.746-9.277-18.353-21.375-26.249-33.083-3.358-4.981-9.07-14.753-12.234-19.888.3.2,3.387,4.91,3.582,5.181,8,11.065,15.615,22.366,24.06,32.989,5.276,6.645,11.006,13.461,17.917,18.159,14.028,9.537,28.917,17.822,43.67,26.291,2.479,1.428,5.9,1.18,8.9,1.77.218-.378.443-.755.667-1.133a29.535,29.535,0,0,0-3.258-3.824c-3.742-3.157-7.672-6.073-11.425-9.23-5.565-4.686-10.788-9.784-17.846-12.393-3.966-1.469-8.061-2.951-11.555-5.311a130.455,130.455,0,0,1-16.76-12.723c-7.465-6.9-14.323-14.458-21.44-21.735a14.2,14.2,0,0,1,2.207,1.77c9.543,8.958,18.43,18.8,28.834,26.615,8.091,6.073,18.035,9.708,27.235,14.264,7.017,3.476,14.163,6.692,21.245,10.032.1-2.839-.366-5.311-4.019-6.338a51.414,51.414,0,0,1-9.5-3.836c-1.658-.85-3.075-1.322-4.692-2.325s-2.85-1.18-4.821-2.254a5.1,5.1,0,0,1-2.839-.732c-9.33-3.724-18.483-7.772-26.078-14.618-4.821-4.343-9.8-8.522-14.553-12.936-6.226-5.772-12.3-11.7-19.026-18.111,4.65,2.656,8.533,5.04,12.564,7.147,10.487,5.476,20.773,11.5,32.906,12.788,4.5.478,8.988,1.1,13.443,1.871a5.589,5.589,0,0,1,2.579.832c.029-.077.59.071.755.077,8.634.33,17.262.726,26.94,1.18-5.766-3.5-10.664-6.492-15.6-9.442a3.945,3.945,0,0,0-1.77-.207c-6.362-.254-12.741-.224-19.067-.82-6.987-.655-14.122-1.151-20.838-3-14-3.865-26.391-11.455-39-18.442a10.274,10.274,0,0,0-2.862-.59l-1.487-1.995c9.035,3.618,17.574,7.79,26.226,11.726,8.787,4.007,17.592,7.955,27.465,8.746,9.442.755,18.8,1.93,28.2,2.915a40.477,40.477,0,0,0-7.182-5.435c-14.252-9.147-27.908-19.115-36-34.47C240.392,185,234.815,171.983,228.92,159.13c-2.9-6.326-5.506-12.788-8.262-19.191l.685-.525,5.311,4.544-1.458-.26-2.608-1.623c.555,1.34.791,1.983,1.08,2.6,4.662,9.973,9.377,19.923,13.98,29.92,7.359,15.981,15.255,31.82,29.324,42.915C281.979,229.315,297.9,240,313.593,251.3l2.325-4-46.255-33.449.366-.5,38.265,18.164c-4.2-3.435-8.811-6.155-13.255-9.118C282.646,214.143,269,207.6,259.908,195.123c-5.01-6.881-10.032-13.744-15.037-20.655-3.441-4.786-6.8-9.631-10.2-14.452,4.839,3.824,9.129,8.1,13.768,11.962,4.52,3.765,9.389,7.082,14.1,10.622-10.032-10.2-20.195-20.065-30.327-29.932a16.406,16.406,0,0,1-1.953-2.951c8.3,7.931,16.329,16.188,25.01,23.682,5.541,4.774,11.62,9.442,18.235,12.34,10.682,4.721,22,8.02,33.048,11.856,1.977.685,4.072,1.039,6.326,1.605-.749-5.235.938,5.789-3.193,1.328-.407-.437-3.069-3.8-3.635-4.037-6.244-2.579-12.446-5.252-18.66-7.9l.224-.631,37.255,8.368c-1.906-3.724-3.323-6.793-5.052-9.672a4.238,4.238,0,0,0-2.892-1.54c-12.605-1.3-25.258-3.234-36.63-8.7-13.809-6.645-26.952-14.706-40.183-22.508-4.839-2.856-9.088-6.728-13.609-10.133a10.11,10.11,0,0,1,1.93.844,286.945,286.945,0,0,0,44.479,26.19c7.2,3.387,14.871,5.76,22.325,8.592-14.753-28.055-35.06-49.879-63.782-63.145l.631-.761,7.849,3.311c1.239.891,2.42,1.9,3.736,2.662a134.6,134.6,0,0,1,29.365,22.107c9.95,10.133,17.486,22.059,25.128,33.909.561.868,1.233,2.095,2.06,2.3,3.393.8,6.863,1.269,10.888,1.959-4.1-6.1-7.577-11.407-11.213-16.624a81.434,81.434,0,0,0-6.409-8.445c-6.887-7.583-13.856-15.1-21-22.425a25.7,25.7,0,0,0-7.312-5.181c-7.625-3.606-15.414-6.857-23.139-10.251,6.9,2.608,13.892,5.016,20.684,7.89,5.86,2.479,11.49,5.482,17.226,8.262l.661-1.068c-4.987-3.116-9.849-6.444-14.99-9.289-5.24-2.9-10.746-5.311-16.595-8.168,32.422-.679,62.885,6.362,92.906,16.341-9.259-4.131-18.743-7.636-28.327-10.882-9.773-3.287-19.693-6.161-30.1-6.68-10.257-.513-20.519-.767-28.215-1.039,28.994-4.054,58.188,5.052,87.234,17.067.153-2.361.242-3.789.348-5.494-7.383-2.567-14.571-5.412-21.965-7.548-8.811-2.549-17.7-5.235-26.733-6.492-7.808-1.074-15.892-.5-23.836-.142-7.152.325-14.27,1.416-21.416,2.03-5.17.443-12.34,2.1-17.521,2.414,0-.33-2.024-.655-2.048-.991,13.083-1.18,30.144-3.635,43.2-5.1a104.791,104.791,0,0,1,45.075,4.6c8.569,2.821,17.114,5.718,25.742,8.61m10.528,201.828,5.9,1.652c-5.27-2.484-2.65-8.557-5.453-11.95a49.219,49.219,0,0,0,.5,8.687c.053.525-.655,1.121-1.009,1.682l-11.384-16.955-.873.531c2.184,4.391,4.509,8.722,6.492,13.207,1.233,2.673,2.939,3.789,5.848,3.086ZM512.08,157.6a15.785,15.785,0,0,0,4.048-.785c2.5-1.18,4.81-2.774,7.235-4.131q10.316-5.736,20.655-11.413a40.063,40.063,0,0,0-9,3.458c-7.672,4.131-15.3,8.445-22.945,12.688l-.277.089ZM249.055,303.956a8.613,8.613,0,0,1,2.555-1c10.847-.4,21.7-1.08,32.546-.938,7.247.094,14.47,1.4,21.717,2.089a7.747,7.747,0,0,0,2.361-.59c-.643-.549-1.239-1.481-1.942-1.576-5.6-.767-11.213-1.859-16.831-1.924-10.032-.106-20.023.3-30.026.767-4.662.218-9.289,1.068-13.933,1.629l.118.738,3.488.779c1.688.177,3.382.336,5.069.531,14.063,1.611,27,7.229,40.277,11.561,6.81,2.225,13.3,5.441,20.466,8.433-1.5-2.656-2.189-5.606-4.007-6.716-3.541-2.166-7.749-3.258-11.643-4.886-10.859-4.532-22.29-6.81-33.874-8.262-5.406-.732-10.923-.484-16.37-.673ZM409.172,308.8l-3.665,4a1.959,1.959,0,0,0,1.829-.271c10.15-7,20.372-13.9,30.41-21.068,5.111-3.647,9.383-8.079,10.144-14.848.478-4.219,1.18-8.415,1.635-12.635.336-3.021.921-6.114.59-9.082-.868-7.937-11.213-18.725-20.655-21.127,13.426,9.377,15.751,21.947,14.287,36.217-1.275,12.393-11.667,27.766-22.567,31.207,3.741-3.429,6.946-6.368,10.156-9.3l-.879-.921c-.531.378-1.08.732-1.587,1.145q-5.9,4.757-11.8,9.531a38.591,38.591,0,0,1,3.193-4.355c9.047-9.336,12.446-20.832,6.208-34.11-3.157-6.716-8.823-10.239-15.178-13.03a4.329,4.329,0,0,0-2.756.4c-5.128,1.894-9.979,4.19-12.3,9.755,0-1.387.5-2.626.3-3.747a12.393,12.393,0,0,0-16.347-9.489c-7.029,2.49-12.428,7.247-17.3,12.647-9.088,10.074-18.029,20.324-15.828,35.408,1.009,6.9,2.5,13.738,3.771,20.6a5.458,5.458,0,0,0,.814-3.37c.083-7.265-1-14.754.478-21.741,3.789-17.887,16.264-28.917,32.015-36.683,2.313-1.139,4.456-.637,5.842,1.965s3.069,5.187,4.969,8.345c2.189-2.361,4.048-4.686,6.2-6.674,2.549-2.361,6.008-4.969,9.082-2.744,7.394,5.347,13.685,11.761,13.573,22.006-.077,8.693-4.172,15.745-8.734,22.667-2.018,3.027-3.942,6.161-5.913,9.271Zm-11.88-106.544a63.2,63.2,0,0,1-2.839-7.412c-1.936-7.754-6.491-13.768-12.086-19.18-8.185-7.89-16.058-16.129-24.568-23.647-7.341-6.492-15.06-12.723-24.874-15.314-12.5-3.293-25.028-6.492-37.539-9.761-3.606-.938-7.2-1.953-10.811-2.88-3.476-.891-6.964-1.717-11.213-2.762,18.825,12.458,37.368,23.877,53.52,38.8l-14.411-20.065c7.973,3.883,15.09,7.489,22.325,10.841a66.851,66.851,0,0,1,19.522,13.8c5.683,5.742,11.62,11.313,16.7,17.563,4.957,6.1,8.97,12.954,13.974,20.324-7.471-19.244-19.563-34.435-30.864-50.1C371.462,166.6,385.519,183.461,397.292,202.257Zm-51.82-1.995.212-.207c-3.328-7.926-6.155-16.1-10.109-23.706a71.862,71.862,0,0,0-20.153-23.877c-10.788-8.262-21.989-16-33.012-23.966-.749-.537-1.534-1.015-2.3-1.528a84.574,84.574,0,0,0,7.265,7.991c9.926,9.814,19.374,19.988,25.476,32.788,9.7,20.33,19.433,40.649,29.348,61.374l2.6-.832c-5.8-13.974-11.431-27.565-17.067-41.15l.4-.183,12.056,25.647.862-.4q-8.109-18.884-16.205-37.769l.272-.153q10.481,15.591,20.968,31.183l.749-.478L327.75,173.128l.637-.4Zm3.777,116.045c-2.62-7.636-5.311-14.594-7.371-21.723-2.614-8.982-3.865-18.011-.449-27.276,5.7-15.45,16.14-27.282,28.61-37.314,6.191-4.975,13.308-9.956,22.065-4.509.071.041.313-.195.72-.46-1.464-1.239-2.951-2.307-4.214-3.612-3.541-3.706-7.872-4.131-11.927-1.688-5.482,3.281-11.03,6.757-15.674,11.095-9.885,9.236-16.872,20.7-22.508,32.912a29.253,29.253,0,0,0-2.88,10.693C335,289.793,340.8,303.207,349.249,316.308Zm-28.964,5.24.531-.153c0-2.561.195-5.134-.029-7.672-1.015-11.52,2.307-21.977,8.262-31.543,2.361-3.818,4.249-7.418,4.969-11.962.685-4.349,2.78-8.469,4.255-12.694-10.622,10.864-17.946,23.44-20.442,38.542-.537,3.246-1.564,6.61-1.151,9.761C317.334,311.132,319.01,316.313,320.285,321.548Zm122.572-92.616c4.19,2.2,8.4,4.355,12.564,6.592,12.44,6.686,16.642,18.058,16.577,31.153-.041,9.525-3.505,18.294-9.442,25.907-2.065,2.638-3.806,5.53-5.695,8.309,8.787-7.023,13.573-12.954,15.751-20.165,2.49-8.209,4.957-16.553,1.953-25.2a69.641,69.641,0,0,0-3.83-8.958c-5.866-11.272-16.064-15.786-27.9-17.633ZM320.7,249.2l.909.413-2.3,4.987.82.59c6.261-13.685,17.533-21.381,31.094-26.421a38.99,38.99,0,0,0-7.583,1.292c-8.734,2.361-17.557,4.839-22.425,13.408a228.133,228.133,0,0,0-11.732,22.9c-1.953,4.574-2.3,9.832-3.364,14.783l1.1.236c1.865-5.423,3.452-10.959,5.671-16.229,2.237-5.465,5.14-10.658,7.772-15.963ZM507.843,379.706l-1.458-.714-10.711,13.921,9.484,7.672,4.42-8.9c2.113-.472,3.889-.36,4.88-1.18,3.983-3.3,6.657-7.371,6.344-13.432-4.656,4.131-7.884,9.442-14.612,9.413C506.769,384.061,507.312,381.884,507.843,379.706Zm-61.611-72.268c10.894-13.048,10.08-24.143,5.518-41.31-.543,4.674-.885,9.371-1.257,14.063-.466,5.9.094,12.121-1.711,17.568-2.243,6.745-6.45,12.841-9.377,18.395,4.355-3.9,11.154-6.793,14.016-14.081Zm-2.272-8.557,1-.879c-.844-1.316-1.629-3.682-2.532-3.73a11.662,11.662,0,0,0-6.61,1.487c-6.173,4.031-12.222,8.291-18.041,12.818-7.884,6.126-13.9,14.535-23.163,19.162a8.085,8.085,0,0,0,4.243-1.18c8.575-6.4,17.114-12.847,25.565-19.433C430.21,302.587,436.212,298.763,443.961,298.881ZM408.216,184.075l-.59.673c6.078,5.081,12.54,9.773,18.111,15.344,4.721,4.721,9.507,3.11,14.931,1.363Zm7.914,142.489,11.213-1.912c2.608-5.364,5.258-10.805,7.9-16.252l-1.045-.95c-4.249,2.5-8.522,4.957-12.717,7.542a2.237,2.237,0,0,0-.637,1.888c.673,3.978-.661,7.07-4.7,9.684Zm90.781-13.036.183.431c-3.476,0-7.082-.631-10.4.118-10.622,2.425-21.274,4.951-31.631,8.309-3.948,1.281-7.129,4.922-10.664,7.483,8.929-2.951,17.356-6.592,26.066-9.377s17.633-4.68,26.462-6.964Zm-190.768,0,1.18-.242c-5.264-17.793-9.991-35.585-.378-53.514a90.462,90.462,0,0,0-6.415,16.252c-1.18,4.131-2.8,8.787-1.983,12.735,1.782,8.4,4.993,16.512,7.607,24.75ZM491.9,380.084l13.685-17.9C494.789,362.533,489.118,373.551,491.9,380.084ZM382.1,327.744c-11-5.772-18.035-16.294-28.793-24.036.525,2.207.4,3.972,1.145,4.485C363.755,314.637,371.255,323.678,382.1,327.744ZM267.863,404.427l4.2-3.753-7.247-8.7-.944.59C266.358,396.1,262.587,401.459,267.863,404.427Zm140.943-80.9c2.839,2.715,5.311,2.408,8.008.9,2.455-1.369,2.8-3.358,2.479-6.008l-3.682-.354v3.677Zm-40.531-.1-6.852-1.629v-3.635l-5.164.389c1.629,2.5,2.4,4.526,3.865,5.713C362.462,326.151,365.2,326.381,368.275,323.431Zm7.164,4.827c-3.812-4.237-7.453-3.7-11.006-.7l9.554,3.11Zm37.379-.738-5.636-2.909-6.191,3.24,2.048,2.75Zm-111.825-8.067-.5.862,21.3,10.623.655-1.357Zm36.459-21.328.791-.927-3.618-3.134-2.9,3.476Z" transform="translate(-90.662 26.663)" fill="#171717"/>
        <path id="Pfad_10915" data-name="Pfad 10915" d="M465.19,452.693c.407-6.492-.089-13.249,3.871-18.949,3.73-5.37,7.825-10.481,11.756-15.7C467.444,431.141,462.263,440.5,465.19,452.693Z" transform="translate(-206.804 -129.297)" fill="#fff"/>
        <path id="Pfad_10916" data-name="Pfad 10916" d="M579.43,514.035c4.042-2.614,5.376-5.707,4.721-9.684a2.237,2.237,0,0,1,.637-1.888c4.2-2.585,8.468-5.046,12.718-7.542l1.045.95c-2.644,5.447-5.311,10.888-7.9,16.252Z" transform="translate(-253.951 -160.807)" fill="#fff"/>
        <path id="Pfad_10917" data-name="Pfad 10917" d="M465.454,512.764c-2.892.7-4.6-.413-5.813-3.146-1.995-4.485-4.32-8.817-6.492-13.207l.873-.531,11.384,16.955Z" transform="translate(-202.193 -161.2)" fill="#fff"/>
        <path id="Pfad_10918" data-name="Pfad 10918" d="M567,518.387l6.8-1.77V512.94l3.682.354c.319,2.65,0,4.638-2.479,6.008C572.276,520.795,569.827,521.1,567,518.387Z" transform="translate(-248.856 -168.193)" fill="url(#linear-gradient-2)"/>
        <path id="Pfad_10919" data-name="Pfad 10919" d="M489.975,518.344c-3.075,2.951-5.813,2.732-8.15.838-1.464-1.18-2.237-3.216-3.865-5.713l5.164-.389v3.635Z" transform="translate(-212.362 -168.25)" fill="url(#linear-gradient-3)"/>
        <path id="Pfad_10920" data-name="Pfad 10920" d="M502.816,528.039l-1.452,2.426-9.554-3.11C495.363,524.351,499,523.814,502.816,528.039Z" transform="translate(-218.039 -173.13)" fill="#fff"/>
        <path id="Pfad_10921" data-name="Pfad 10921" d="M565.586,526.9l-9.779,3.1-2.048-2.75L559.951,524Z" transform="translate(-243.43 -172.726)" fill="#fff"/>
        <path id="Pfad_10922" data-name="Pfad 10922" d="M473.87,517.409c.354-.59,1.062-1.18,1.009-1.682a49.223,49.223,0,0,1-.5-8.687c2.8,3.393.183,9.442,5.453,11.95l-5.9-1.652Z" transform="translate(-210.686 -165.774)" fill="#fff"/>
        <path id="Pfad_10923" data-name="Pfad 10923" d="M734.331,230.79v.183l-.271-.089Z" transform="translate(-312.949 -46.714)" fill="#fff"/>
        <path id="Pfad_10924" data-name="Pfad 10924" d="M626.784,67.546c.26-.36.873-.85,1.446-1.646a4.882,4.882,0,0,1,0,1.363c-5.9,14.039-7.459,28.763-7.288,43.836.183,16.66.041,33.325.041,50.817,1.723-.844,2.443-1.109,3.069-1.517,11.939-7.878,25.506-11.59,39.132-14.966,15.462-3.83,31.071-7.247,47.01-10.422.106.354,2.951.372,3.045.726-1.581.519-6.279,1.251-7.9,1.564-25.01,4.88-50.1,9.785-73.118,21.139-8.586,4.231-15.934,11.024-23.712,16.819-3.027,2.254-5.707,4.975-8.752,7.672a90.756,90.756,0,0,0-29.66-14.394,4.5,4.5,0,0,1-2.608-2.951c-2.361-13.225-4.951-26.432-6.627-39.752a131.888,131.888,0,0,1,.46-33.638,264.879,264.879,0,0,1,9.708-44.113c.248-.8,2.726-9.855,3.429-10.563-9.79,32.918-16.069,74.452-8.008,108.385-1.133-16.937-1-33.827,1.588-50.64,2.555-16.612,6.639-32.794,13.278-48.285-1.546,5.848-3.476,11.626-4.562,17.563-1.729,9.4-3.606,18.884-4.131,28.38-.7,12.794-.537,25.665-.035,38.477.454,11.691,1.841,23.346,2.862,35.013.047.531.5,1.033,1.363,2.709,1.682-5.6,3.216-10.2,4.444-14.866,3.1-11.8,5.9-23.7,9.135-35.456,3.393-12.21,10.257-22.691,17.6-32.794,3.576-4.916,9.118-9.991,13.685-14.689.962-.991,5.358-4.6,6.539-5.417-4.367,5.223-14.016,13.868-18.017,19.362-7.418,10.174-14.081,20.861-17.415,33.189-4.391,16.188-8.575,32.458-12.83,48.651-.59,2.325.59,2.738,2.5,2.479l9.908-34.7a1.959,1.959,0,0,1,.478,1.918c-2.88,10.463-5.624,20.974-8.781,31.354-.814,2.667.041,3.116,2.49,3.541,1.523-6.161,3.051-12.239,4.515-18.33s2.839-12.222,4.284-18.324,2.75-12.234,4.432-18.265c1.641-5.848,3.688-11.579,5.553-17.362l.413.177q-4.78,18.035-9.554,36.069l1.18.348c3.334-15.32,8.787-29.749,17.5-42.915-7.082,25.8-4.721,52.2-6.639,78.3l1.841.136c1.511-21.735.165-43.67,3.4-62.6.348,17.439.744,37.5,1.145,57.727,4.1-1.481,4.267-4.019,4.284-7,.13-20.065.218-40.183.755-60.265A83.687,83.687,0,0,1,626.784,67.546Zm-54.606,99.4c-.968-24.337-3.918-48.108-2.148-72.08a29.505,29.505,0,0,0-1.18,6.8c-.089,15.674-.165,31.348,0,47.016a142.505,142.505,0,0,0,1.475,15.645C570.461,165.273,571.541,166.082,572.178,166.949Z" transform="translate(-245.985 26.663)"/>
        <path id="Pfad_10925" data-name="Pfad 10925" d="M655.62,217.448h.36V183.22h-.36Z" transform="translate(-285.178 -33.053)" fill="#fff"/>
        <path id="Pfad_10926" data-name="Pfad 10926" d="M346.84,536c5.73,3.417,10.953,6.492,16.14,9.666a2.319,2.319,0,0,1,.962,1.44c.832,5.311,1.587,10.623,2.361,15.792-2.3-1.328-5.134-2.018-7.471,1.434-3.641-4.131-7.8-7.147-7.831-13.573C350.953,546.115,348.463,541.465,346.84,536Z" transform="translate(-158.621 -177.644)"/>
        <path id="Pfad_10927" data-name="Pfad 10927" d="M650.78,255.992c15.4-19.923,37.362-28.38,60.277-35.172C688.856,228.864,666.708,236.99,650.78,255.992Z" transform="translate(-283.194 -48.464)"/>
        <path id="Pfad_10928" data-name="Pfad 10928" d="M647.631,251.75l-27.536,23.977L609,268.055l.4-.661,10.422,6.568L646.857,251Z" transform="translate(-266.07 -60.834)"/>
        <path id="Pfad_10929" data-name="Pfad 10929" d="M576.019,268.26,601.6,281.367l-.484.944L575.57,269.145Z" transform="translate(-252.369 -67.908)"/>
        <path id="Pfad_10930" data-name="Pfad 10930" d="M572.946,262l16.146,6.887-.372.909-16.14-6.787C572.7,262.69,572.828,262.354,572.946,262Z" transform="translate(-251.143 -65.342)"/>
        <path id="Pfad_10931" data-name="Pfad 10931" d="M465.184,452.693c-2.951-12.192,2.254-21.552,15.627-34.653-3.93,5.223-8.026,10.333-11.756,15.7C465.1,439.444,465.591,446.2,465.184,452.693Z" transform="translate(-206.798 -129.297)"/>
        <path id="Pfad_10932" data-name="Pfad 10932" d="M655.62,217.448V183.22h.36v34.228Z" transform="translate(-285.178 -33.053)"/>
      </g>
      <path id="Pfad_10933" data-name="Pfad 10933" d="M282.867,715.441A53.111,53.111,0,0,1,299.084,726.3l-14.329,14.382a29.667,29.667,0,0,0-21.546-8.946,30.427,30.427,0,1,0,28.722,40.631H263.18v-20.3H312.94a50.744,50.744,0,0,1-85.629,46.013,50.722,50.722,0,0,1,55.556-82.643Z" transform="translate(31.563 5029.8)" fill="#fff"/>
      <path id="Pfad_10934" data-name="Pfad 10934" d="M481.119,726.37a50.522,50.522,0,1,1-35.845-14.93A48.9,48.9,0,0,1,481.119,726.37Zm-57.356,14.317a30.262,30.262,0,1,0,21.511-8.976A29.466,29.466,0,0,0,423.763,740.687Z" transform="translate(-43.073 5029.8)" fill="#fff"/>
      <path id="Pfad_10935" data-name="Pfad 10935" d="M596.942,711.44v38.554l22.384-38.554h23.5l-29.991,51.59,34.818,49.949H622.9L596.93,775.688v37.291H576.6V711.44Z" transform="translate(-117.705 5029.8)" fill="#fff"/>
      <path id="Pfad_10936" data-name="Pfad 10936" d="M789.99,711.44v60.914a40.625,40.625,0,0,1-81.25,0V711.44h20.342v60.914a20.283,20.283,0,1,0,40.566,0V711.44Z" transform="translate(-171.864 5029.8)" fill="#fff"/>
      <path id="Pfad_10937" data-name="Pfad 10937" d="M563.768,901.552A33.588,33.588,0,0,1,562.475,910l-1.705-.478a31.281,31.281,0,0,0,1.316-8.091Zm3.446-5.842v27.512h-2.1V895.71Zm4.042,10.622-1.77.478a36.917,36.917,0,0,0-1.741-5.542l1.647-.543a47.973,47.973,0,0,1,1.865,5.624Zm16-9.5v2h-8.12l-.749,3.328h7.194v5.9h2.756v1.983H570.419v-2.036h4.467l.9-3.895H572.16v-1.977h4.09l.75-3.328h-5.754v-1.977Zm-.98,26.332h-2.124v-1.351H574.6v1.41h-2.16v-10.4h13.845Zm-2.124-3.417V914.8H574.6v4.945Zm-.661-11.72v-3.883h-5.541l-.9,3.895Z" transform="translate(-111.217 4954.275)" fill="#fff"/>
      <path id="Pfad_10938" data-name="Pfad 10938" d="M636.525,910.731v2.06h-9.2v7.082h11.685v2.065H613.48v-2.065h11.626V912.79h-9.141v-2.036Zm-11.661-9.92c-1.529,3.954-4.94,6.769-10.274,8.48l-1.021-1.859c4.916-1.5,8-3.777,9.2-6.834Zm2.638-2.4h11.419v5.9h-2.189V900.4H630.47v4.851c0,.661.36,1.021,1.08,1.021H638.2v1.947h-7.672c-1.5,0-2.213-.69-2.213-2.036V900.4H615.787v3.924H613.6v-5.9h11.655a22.7,22.7,0,0,0-1.287-2.85l2.361-.36a27.952,27.952,0,0,1,1.174,3.2Z" transform="translate(-132.82 4954.479)" fill="#fff"/>
      <circle id="Ellipse_1678" data-name="Ellipse 1678" cx="35.998" cy="35.998" r="35.998" transform="translate(366.185 5758.095)" fill="#fff"/>
      <path id="Pfad_10939" data-name="Pfad 10939" d="M732.367,902.863h2.124c-12.08-1.239-24.833-.348-36.37-1.381l-2.951-.809a81.449,81.449,0,0,0-18.507,1.464c-2.809.519-4.461,3.4-4.461,3.4-.59.59-1.145,1.611-.354,2.024,1.44.083,4.939-.242,5.1.732.041.242-.655.307-1.357.378.165.974-1.587,3.116-2.272,3.193-.59.561-4.473,2.455-5.057,3.016-1.906.956,4.934,3.924,7.737,4.385,1.434.36.207,1.222.336,1.947,1.3-.372,2.1.3,3.405-.083.035.236,4.131.124,6.126-.047a8.421,8.421,0,0,1,2.661-.46c.673-.053.637-.3.59-.543l.065.49c.59-.543,2.024-.159,2.667-.454l.059.49c1.286-.59,2.7-.183,4.019-.519l.053.49c.673-.047,1.346-.094,1.375.154l.053.49c.7.195,1.995-.372,2.042.118l-.047-.49a46.931,46.931,0,0,1,6.775.124c5.459.708,12.133,0,18.194-.59.673,0,1.334-.519.643-1l2.03-.035c1.351,0,.661-.738,2.018-.749,10.859-1.34,21.705.106,32.576-.148-2.691-.348-4.721-.944-7.43-.779,0-.242.041-.732-.637-.755-4.084-.389-8.852,0-10.888-.991a6.587,6.587,0,0,0-3.4-1.021h2.054v-.738c-2.738-.289-6.173-.531-8.929-.779v-.732h-1.375c-1.4-1.717,6.214-1.5,9.684-1.694v-.98h-1.393v-.49c4.178.035,7.672.1,11.8.207l-2.785-.065c0-.242,0-.49-.673-.508,2.791.047,6.25.419,9.07,0,.708-.212.065-.985-2.018-1.292-2.1-.059-3.5-.124-5.6-.165v-.49a39.92,39.92,0,0,0,4.9.142c.714-.224-1.363-.779-.649-1a6.368,6.368,0,0,0,2.125-.177c-2.113-.065-4.934.077-7.034-.2-.69-.26-1.387-.525-1.369-1.015a14.968,14.968,0,0,1-8.439-1.841C738.044,902.6,734.492,902.857,732.367,902.863Z" transform="translate(-155.137 4952.28)" fill="url(#linear-gradient-4)"/>
      <path id="Pfad_10940" data-name="Pfad 10940" d="M469.318,749.24H430.133L416.3,763.073l33.426,39.191,33.425-39.191Z" transform="translate(-47.625 5020.145)" fill="#171717"/>
      <path id="Pfad_10941" data-name="Pfad 10941" d="M492.533,749.24,472.94,802.264l33.426-39.191Z" transform="translate(-70.84 5020.145)" fill="#171717"/>
      <path id="Pfad_10942" data-name="Pfad 10942" d="M430.133,749.24l5.111,13.833H416.3Z" transform="translate(-47.625 5020.145)" fill="#171717"/>
      <path id="Pfad_10943" data-name="Pfad 10943" d="M462.882,749.24,448.4,763.073h28.964Z" transform="translate(-60.782 5020.145)" fill="#171717"/>
      <path id="Pfad_10944" data-name="Pfad 10944" d="M497.48,763.073h18.943L502.591,749.24Z" transform="translate(-80.898 5020.145)" fill="#171717"/>
      <path id="Pfad_10945" data-name="Pfad 10945" d="M416.3,772.68h18.943l14.482,39.191Z" transform="translate(-47.625 5010.537)" fill="#171717"/>
    </g>
  </g>
</svg>
